<svg xmlns="http://www.w3.org/2000/svg" width="753.044" height="156.646" viewBox="0 0 753.044 156.646">
  <g id="Group_486" data-name="Group 486" transform="translate(-1198.875 -153.745)">
    <path id="Path_195" data-name="Path 195" d="M15,0,26.375-84.25H2l-15.625,32A276.1,276.1,0,0,0-25-25.375h-.5c-.125-9.375-1-19-1.5-26.875l-2.625-32H-53.75L-74.875,0h16.5L-50-34.75c2.125-9.125,4.625-21.75,7-32.875h.25c.5,11.25,1.125,22.875,1.875,32.125l3,34.125h14l17.25-34.5C-2-45.125,3.25-56.75,7.875-67.625H8.25C5.875-55.5,4-43.875,2.625-34.75L-2.5,0ZM75.125-62.5c-21.75,0-36.5,17.375-36.5,38.625C38.625-8.75,49,1.375,64.5,1.375,85.75,1.375,101-15,101-37.375,101-51.25,91.5-62.5,75.125-62.5ZM72.75-48.875c7.25,0,9.625,6,9.625,11.625,0,10.5-5.5,24.875-15.375,24.875-6.25,0-9.75-4.75-9.75-11.875C57.125-33.75,62.375-48.875,72.75-48.875ZM130.5-88.75,118.125-26.875A55.279,55.279,0,0,0,116.75-15.75c0,10.875,7.25,17.125,21.75,17.125,27.5,0,40.5-22.75,40.5-42.625,0-10.875-5.75-21.25-18.5-21.25a24.54,24.54,0,0,0-18.875,8.625h-.25l7.25-34.875Zm6.625,58c2.125-10.625,8.5-17.25,15-17.25,5.5,0,8,4.625,8,10.5,0,10.75-7.5,25.25-17.875,25.25-4.125,0-6.75-2.375-6.875-6.75A35.469,35.469,0,0,1,136-25.75ZM209.375,0,221-61.125H203L191.375,0Zm4.875-68.75c5.75,0,10.625-3.75,10.625-10.125,0-5.375-3.75-8.875-9-8.875A10.237,10.237,0,0,0,205.5-77.5,8.332,8.332,0,0,0,214.25-68.75ZM250,0l17-88.75H249L232,0Zm72.5-16.5a38.434,38.434,0,0,1-17.125,3.875c-5.25,0-9.375-1.625-11.75-4.75a12.059,12.059,0,0,1-1.875-6.25c24.5.625,39.625-5,39.625-20.625,0-11.375-8.875-18.25-21.25-18.25C288-62.5,274.5-43.125,274.5-24.5c0,15.875,9,25.75,26.5,25.75,6.75,0,15.625-1.125,22.75-4.75Zm-8-27.625c0,5.5-7,7.5-21,7.375,1.25-5.75,6-12.625,14.375-12.625C312-49.375,314.5-47.25,314.5-44.125Z" transform="translate(1521 247.623)" fill="#fff"/>
    <path id="Path_196" data-name="Path 196" d="M-298.875,0-284.5-34.125C-280.25-44.5-277.375-53.5-274.25-62.5h.25c-.5,9.5-.75,18-.75,27.875L-274.125,0H-254.5l37.125-84.25H-236.25l-14.625,37.5c-3.25,9-6.375,18.125-9.25,26.875h-.25c.375-8.25.625-16.625.75-26.75l.25-37.625h-19.75L-294.25-46.5c-3.875,10.25-7,18.75-9.875,27h-.25c.25-7.5.375-17.125.5-27.25L-304-84.25h-18.125L-318.875,0Zm127.5-16.5A38.434,38.434,0,0,1-188.5-12.625c-5.25,0-9.375-1.625-11.75-4.75a12.059,12.059,0,0,1-1.875-6.25c24.5.625,39.625-5,39.625-20.625,0-11.375-8.875-18.25-21.25-18.25-22.125,0-35.625,19.375-35.625,38,0,15.875,9,25.75,26.5,25.75,6.75,0,15.625-1.125,22.75-4.75Zm-8-27.625c0,5.5-7,7.5-21,7.375,1.25-5.75,6-12.625,14.375-12.625C-181.875-49.375-179.375-47.25-179.375-44.125ZM-134.5-88.75l-12.375,61.875A55.279,55.279,0,0,0-148.25-15.75c0,10.875,7.25,17.125,21.75,17.125C-99,1.375-86-21.375-86-41.25c0-10.875-5.75-21.25-18.5-21.25a24.54,24.54,0,0,0-18.875,8.625h-.25l7.25-34.875Zm6.625,58c2.125-10.625,8.5-17.25,15-17.25,5.5,0,8,4.625,8,10.5,0,10.75-7.5,25.25-17.875,25.25-4.125,0-6.75-2.375-6.875-6.75A35.469,35.469,0,0,1-129-25.75Z" transform="translate(1521 247.623)" fill="#fff"/>
    <path id="Path_194" data-name="Path 194" d="M-371.818,0V-28.437h8.75a13.288,13.288,0,0,1,6.709,1.689,11.781,11.781,0,0,1,4.619,4.8,14.819,14.819,0,0,1,1.66,7.08v1.309A14.861,14.861,0,0,1-351.711-6.5a11.68,11.68,0,0,1-4.6,4.785A13.388,13.388,0,0,1-363.01,0Zm5.859-23.691V-4.707h2.832a6.363,6.363,0,0,0,5.254-2.246,10.15,10.15,0,0,0,1.855-6.426v-1.5q0-4.336-1.8-6.572a6.341,6.341,0,0,0-5.254-2.236ZM-301.592,0h-5.859V-28.437h5.859Zm65.93-3.594a10.17,10.17,0,0,1-4.473,2.939A18.731,18.731,0,0,1-246.541.391a12.69,12.69,0,0,1-6.475-1.611,10.747,10.747,0,0,1-4.3-4.678,16.463,16.463,0,0,1-1.553-7.207v-1.934a17.484,17.484,0,0,1,1.436-7.373,10.619,10.619,0,0,1,4.141-4.766,11.927,11.927,0,0,1,6.338-1.65q5.059,0,7.91,2.412a10.308,10.308,0,0,1,3.379,7.021h-5.7a5.67,5.67,0,0,0-1.729-3.574,5.52,5.52,0,0,0-3.682-1.133,5.2,5.2,0,0,0-4.551,2.246q-1.563,2.246-1.582,6.68v1.816q0,4.473,1.7,6.758a5.819,5.819,0,0,0,4.98,2.285q3.3,0,4.707-1.406v-4.9h-5.332v-4.316h11.191ZM-186.686,0h-5.859V-28.437h5.859Zm64.27-23.691h-8.711V0h-5.859V-23.691h-8.594v-4.746h23.164ZM-67.365-5.859H-77.639L-79.592,0h-6.23l10.586-28.437h5.43L-59.162,0h-6.23Zm-8.691-4.746h7.109L-72.521-21.25Zm63.41,5.9H-.205V0h-18.3V-28.437h5.859Zm123.91-3.5,3.828-20.234h5.84L114.623,0h-5.9L104.1-19.023,99.467,0h-5.9L87.26-28.437H93.1l3.848,20.2,4.688-20.2H106.6Zm74.191-5.371a17.167,17.167,0,0,1-1.484,7.363,11.179,11.179,0,0,1-4.248,4.883A11.751,11.751,0,0,1,173.385.391a11.831,11.831,0,0,1-6.309-1.7,11.289,11.289,0,0,1-4.3-4.854,16.676,16.676,0,0,1-1.543-7.256v-1.406a17.077,17.077,0,0,1,1.514-7.393,11.27,11.27,0,0,1,4.277-4.9,11.766,11.766,0,0,1,6.318-1.709,11.766,11.766,0,0,1,6.318,1.709,11.27,11.27,0,0,1,4.277,4.9,17.028,17.028,0,0,1,1.514,7.373Zm-5.937-1.289q0-4.473-1.6-6.8a5.219,5.219,0,0,0-4.57-2.324,5.221,5.221,0,0,0-4.551,2.295q-1.6,2.295-1.621,6.729v1.387a12.117,12.117,0,0,0,1.6,6.758,5.206,5.206,0,0,0,4.609,2.4,5.159,5.159,0,0,0,4.531-2.314q1.582-2.314,1.6-6.748ZM238.24-10.41h-4.668V0h-5.859V-28.437h10.566q5.039,0,7.773,2.246a7.752,7.752,0,0,1,2.734,6.348,8.749,8.749,0,0,1-1.26,4.854,8.592,8.592,0,0,1-3.818,3.1L249.861-.273V0h-6.289Zm-4.668-4.746H238.3a4.839,4.839,0,0,0,3.418-1.123,4.014,4.014,0,0,0,1.211-3.1,4.3,4.3,0,0,0-1.143-3.164,4.748,4.748,0,0,0-3.506-1.152h-4.707ZM297.1-4.707h12.441V0h-18.3V-28.437H297.1ZM350.9,0V-28.437h8.75a13.288,13.288,0,0,1,6.709,1.689,11.781,11.781,0,0,1,4.619,4.8,14.819,14.819,0,0,1,1.66,7.08v1.309A14.861,14.861,0,0,1,371.008-6.5a11.68,11.68,0,0,1-4.6,4.785A13.388,13.388,0,0,1,359.709,0Zm5.859-23.691V-4.707h2.832a6.363,6.363,0,0,0,5.254-2.246,10.15,10.15,0,0,0,1.855-6.426v-1.5q0-4.336-1.8-6.572a6.341,6.341,0,0,0-5.254-2.236Z" transform="translate(1571 310)" fill="#fff" opacity="0.502"/>
    <rect id="Rectangle_3" data-name="Rectangle 3" width="93.919" height="112.919" rx="9" transform="translate(1858 153.745)" fill="#333133"/>
    <path id="Path_2" data-name="Path 2" d="M548.713,258.874c9.685-2.041,19.414-3.91,29.033-6.226,3-.721,4.62-.039,6.432,2.236,3.823,4.8,7.623,9.226,12.3,14.714.28.329.954,1.655-.939,1.655H593c-16.538,0-33.077-.1-49.613.086-3.246.038-4.453-1.049-5.8-3.948-2.963-6.362-2.519-11.6,2.683-16.534,2.047-1.941,3.422-4.573,5.213-6.8,9.954-12.371,17.569-27.207,34.826-31.909q-.35-.511-.7-1.024c-9.54,2.037-19.106,3.96-28.6,6.182-2.688.63-4.372.245-6.134-1.964-3.638-4.56-11.842-14.081-11.842-14.081s-.778-1-.5-1.651,1.619-.944,1.619-.944h7.831c14.63,0,29.26.066,43.889-.058,2.745-.024,3.908.839,5.156,3.408,3.233,6.655,2.415,11.957-2.728,17.425-4.656,4.951-8.56,10.653-12.46,16.258C568.812,245.788,560.568,254.288,548.713,258.874Z" transform="translate(1341.188 -22.905)" fill="#fff"/>
  </g>
</svg>
